<?xml version="1.0" encoding="UTF-8" standalone="no" ?>
<!DOCTYPE svg PUBLIC "-//W3C//DTD SVG 1.1//EN" "http://www.w3.org/Graphics/SVG/1.1/DTD/svg11.dtd">
<svg xmlns="http://www.w3.org/2000/svg" xmlns:xlink="http://www.w3.org/1999/xlink" version="1.1" width="1080" height="1080" viewBox="0 0 1080 1080" xml:space="preserve">
<desc>Created with Fabric.js 5.2.4</desc>
<defs>
</defs>
<rect x="0" y="0" width="100%" height="100%" fill="transparent"></rect>
<g transform="matrix(0 0 0 0 0 0)" id="babed684-feee-4c9e-a48e-17865d20a9b0"  >
</g>
<g transform="matrix(1 0 0 1 540 540)" id="ba61d0c8-a380-4819-9e70-ff2d78960f19"  >
<rect style="stroke: none; stroke-width: 1; stroke-dasharray: none; stroke-linecap: butt; stroke-dashoffset: 0; stroke-linejoin: miter; stroke-miterlimit: 4; fill: rgb(255,255,255); fill-rule: nonzero; opacity: 1; visibility: hidden;" vector-effect="non-scaling-stroke"  x="-540" y="-540" rx="0" ry="0" width="1080" height="1080" />
</g>
<g transform="matrix(15.36 0 0 15.36 538.73 541.27)" id="7af098a8-fe21-420d-9ff5-dcc446e69c56"  >
<circle style="stroke: rgb(255,255,255); stroke-width: 0; stroke-dasharray: none; stroke-linecap: butt; stroke-dashoffset: 0; stroke-linejoin: miter; stroke-miterlimit: 4; fill: rgb(255,255,255); fill-rule: nonzero; opacity: 1;" vector-effect="non-scaling-stroke"  cx="0" cy="0" r="35" />
</g>
<g transform="matrix(9.68 0 0 9.68 540 540)"  >
<g style="" vector-effect="non-scaling-stroke"   >
		<g transform="matrix(1 0 0 1 -0.6 -15.15)"  >
<path style="stroke: none; stroke-width: 1; stroke-dasharray: none; stroke-linecap: butt; stroke-dashoffset: 0; stroke-linejoin: miter; stroke-miterlimit: 4; fill: rgb(57,89,77); fill-rule: evenodd; opacity: 1;" vector-effect="non-scaling-stroke"  transform=" translate(-36.9, -22.35)" d="M 24.3 44.7 C 26.3 44.7 30.3 44.6 35.9 42.300000000000004 C 42.4 39.6 55.2 34.800000000000004 64.5 29.800000000000004 C 71 26.300000000000004 73.8 21.700000000000003 73.8 15.500000000000004 C 73.8 7 66.9 0 58.3 0 L 22.299999999999997 0 C 10 0 0 10 0 22.3 C 0 34.6 9.4 44.7 24.3 44.7 z" stroke-linecap="round" />
</g>
		<g transform="matrix(1 0 0 1 15.2 20.09)"  >
<path style="stroke: none; stroke-width: 1; stroke-dasharray: none; stroke-linecap: butt; stroke-dashoffset: 0; stroke-linejoin: miter; stroke-miterlimit: 4; fill: rgb(209,142,226); fill-rule: evenodd; opacity: 1;" vector-effect="non-scaling-stroke"  transform=" translate(-52.7, -57.59)" d="M 30.4 60 C 30.4 54 34 48.5 39.599999999999994 46.2 L 50.89999999999999 41.5 C 62.4 36.8 75 45.2 75 57.6 C 75 67.2 67.2 75 57.6 75 L 45.3 75 C 37.099999999999994 75 30.4 68.3 30.4 60 z" stroke-linecap="round" />
</g>
		<g transform="matrix(1 0 0 1 -24.6 23.8)"  >
<path style="stroke: none; stroke-width: 1; stroke-dasharray: none; stroke-linecap: butt; stroke-dashoffset: 0; stroke-linejoin: miter; stroke-miterlimit: 4; fill: rgb(255,119,89); fill-rule: nonzero; opacity: 1;" vector-effect="non-scaling-stroke"  transform=" translate(-12.9, -61.3)" d="M 12.9 47.6 C 5.8 47.6 0 53.4 0 60.5 L 0 62.2 C 0 69.2 5.8 75 12.9 75 C 20 75 25.8 69.2 25.8 62.1 L 25.8 60.4 C 25.7 53.4 20 47.599999999999994 12.9 47.599999999999994 z" stroke-linecap="round" />
</g>
</g>
</g>
</svg>