<svg xmlns="http://www.w3.org/2000/svg" xmlns:xlink="http://www.w3.org/1999/xlink" version="1.1" width="256" height="256" viewBox="0 0 256 256" xml:space="preserve">

<defs>
</defs>
<g style="stroke: none; stroke-width: 0; stroke-dasharray: none; stroke-linecap: butt; stroke-linejoin: miter; stroke-miterlimit: 10; fill: none; fill-rule: nonzero; opacity: 1;" transform="translate(1.4065934065934016 1.4065934065934016) scale(2.81 2.81)" >
	<path d="M 45.001 90 L 45.001 90 C 20.147 90 0 69.853 0 45 v 0 C 0 20.147 20.147 0 45 0 h 0 c 24.853 0 45 20.147 45 45 v 0.001 C 90 69.853 69.853 90 45.001 90 z" style="stroke: none; stroke-width: 1; stroke-dasharray: none; stroke-linecap: butt; stroke-linejoin: miter; stroke-miterlimit: 10; fill: rgb(116,170,156); fill-rule: nonzero; opacity: 1;" transform=" matrix(1 0 0 1 0 0) " stroke-linecap="round" />
	<path d="M 70.728 39.489 l -0.021 -0.018 c 1.326 -4.082 0.848 -8.535 -1.314 -12.241 c -3.286 -5.691 -9.864 -8.634 -16.285 -7.277 l -0.026 0.009 c -2.873 -3.189 -6.968 -5.002 -11.258 -4.982 c -6.571 0 -12.409 4.225 -14.444 10.465 l -0.005 0.027 c -4.198 0.893 -7.816 3.533 -9.944 7.259 c -3.286 5.691 -2.546 12.859 1.841 17.741 l 0.021 0.018 c -1.326 4.082 -0.848 8.535 1.314 12.241 c 3.286 5.691 9.864 8.634 16.285 7.277 l 0.026 -0.009 c 2.873 3.189 6.968 5.002 11.258 4.982 c 6.571 0 12.409 -4.225 14.444 -10.465 l 0.005 -0.027 c 4.198 -0.893 7.816 -3.533 9.944 -7.259 C 75.854 51.539 75.115 44.371 70.728 39.489 z M 50.944 48.413 L 45 51.845 l -5.944 -3.432 v -6.864 L 45 38.117 l 5.944 3.432 V 48.413 z M 66.015 29.181 l -0.027 -0.007 c 1.316 2.28 1.797 4.924 1.362 7.519 l -12.265 -7.081 c -0.159 -0.092 -0.326 -0.158 -0.497 -0.202 c -0.501 -0.141 -1.046 -0.075 -1.515 0.196 l -14.006 8.087 l -0.004 -5.908 l 11.57 -6.682 c 1.119 -0.648 2.338 -1.091 3.6 -1.322 l -0.007 -0.025 C 58.774 22.914 63.56 24.944 66.015 29.181 z M 41.824 18.881 l -0.02 0.02 c 2.633 0 5.163 0.906 7.193 2.58 l -12.265 7.081 c -0.159 0.092 -0.3 0.204 -0.423 0.329 c -0.373 0.363 -0.588 0.868 -0.588 1.411 v 16.173 l -5.119 -2.951 l -0.002 -13.361 c -0.002 -1.293 0.224 -2.57 0.655 -3.779 l -0.025 -0.006 C 32.776 22.019 36.927 18.889 41.824 18.881 z M 20.809 34.682 l 0.007 0.027 c 1.316 -2.28 3.366 -4.018 5.83 -4.939 v 14.163 c 0 0.184 0.026 0.361 0.073 0.531 c 0.128 0.504 0.458 0.943 0.928 1.214 l 14.006 8.087 l -5.115 2.958 l -11.572 -6.678 c -1.121 -0.645 -2.113 -1.479 -2.945 -2.457 l -0.018 0.019 C 19.003 44.086 18.367 38.927 20.809 34.682 z M 23.985 60.782 l 0.027 0.007 c -1.316 -2.28 -1.797 -4.924 -1.362 -7.519 l 12.265 7.081 c 0.159 0.092 0.326 0.158 0.496 0.202 c 0.501 0.141 1.046 0.075 1.516 -0.196 l 14.006 -8.087 l 0.004 5.908 l -11.57 6.682 c -1.119 0.648 -2.338 1.09 -3.6 1.322 l 0.007 0.025 C 31.226 67.048 26.44 65.019 23.985 60.782 z M 48.176 71.081 l 0.02 -0.02 c -2.633 0 -5.163 -0.906 -7.193 -2.58 L 53.269 61.4 c 0.159 -0.092 0.3 -0.203 0.423 -0.329 c 0.373 -0.363 0.588 -0.868 0.588 -1.411 V 43.488 l 5.119 2.951 l 0.002 13.361 c 0.002 1.293 -0.224 2.57 -0.655 3.779 l 0.025 0.006 C 57.224 67.943 53.073 71.074 48.176 71.081 z M 69.191 55.281 L 69.191 55.281 l -0.007 -0.027 c -1.316 2.28 -3.366 4.018 -5.83 4.939 V 46.03 c 0 -0.184 -0.026 -0.361 -0.073 -0.531 c -0.128 -0.504 -0.458 -0.943 -0.928 -1.214 l -14.006 -8.087 l 5.115 -2.958 l 11.572 6.678 c 1.121 0.645 2.113 1.479 2.945 2.457 l 0.018 -0.019 C 70.997 45.876 71.633 51.036 69.191 55.281 z" style="stroke: none; stroke-width: 1; stroke-dasharray: none; stroke-linecap: butt; stroke-linejoin: miter; stroke-miterlimit: 10; fill: rgb(255,255,255); fill-rule: nonzero; opacity: 1;" transform=" matrix(1 0 0 1 0 0) " stroke-linecap="round" />
</g>
</svg>