<?xml version="1.0" encoding="UTF-8" standalone="no"?>
<!-- Generated by Microsoft Visio, SVG Export OCI-speech.svg Page-1 -->

<svg
   width="0.417487in"
   height="0.417031in"
   viewBox="0 0 30.0591 30.0262"
   xml:space="preserve"
   color-interpolation-filters="sRGB"
   class="st3"
   version="1.1"
   id="svg16"
   sodipodi:docname="OCI-speech.svg"
   inkscape:version="1.3.2 (091e20e, 2023-11-25, custom)"
   xmlns:inkscape="http://www.inkscape.org/namespaces/inkscape"
   xmlns:sodipodi="http://sodipodi.sourceforge.net/DTD/sodipodi-0.dtd"
   xmlns="http://www.w3.org/2000/svg"
   xmlns:svg="http://www.w3.org/2000/svg"><defs
   id="defs16">
		
		
	
			
			
			
			
			
			
			
			
			
			
			
			
			
			
			
		
				
				
			
				
				
			
				
				
			
				
				
			
				
				
			
				
				
			
				
				
			
				
				
			
				
				
			
				
				
			
				
				
			
				
				
			
				
				
			
				
				
			</defs><sodipodi:namedview
   id="namedview16"
   pagecolor="#ffffff"
   bordercolor="#666666"
   borderopacity="1.0"
   inkscape:showpageshadow="2"
   inkscape:pageopacity="0.0"
   inkscape:pagecheckerboard="0"
   inkscape:deskcolor="#d1d1d1"
   inkscape:document-units="in"
   inkscape:zoom="19.258161"
   inkscape:cx="20.017488"
   inkscape:cy="20.017488"
   inkscape:window-width="1920"
   inkscape:window-height="1009"
   inkscape:window-x="1072"
   inkscape:window-y="425"
   inkscape:window-maximized="1"
   inkscape:current-layer="svg16" />
	<style
   type="text/css"
   id="style1">
	<![CDATA[
		.st1 {fill:#ffffff;stroke:none;stroke-linecap:round;stroke-linejoin:round;stroke-width:0.75}
		.st2 {fill:#2c5967;stroke:none;stroke-linecap:round;stroke-linejoin:round;stroke-width:0.75}
		.st3 {fill:none;fill-rule:evenodd;font-size:12px;overflow:visible;stroke-linecap:square;stroke-miterlimit:3}
	]]>
	</style>

	<path
   d="m 17.61,17.03 h 1.13 0.42 0.47 0.43 1.08 1.22 0.23 c 0.19,0.05 0.42,0.09 0.66,0.09 0.19,0 0.42,-0.04 0.61,-0.09 h 0.23 1.23 1.12 0.47 0.42 0.43 1.08 1.22 l -0.61,-1.08 -0.85,-1.5 1.46,-2.49 h -1.27 -1.08 -0.42 -0.38 -0.42 -1.08 -1.27 -0.33 c -0.19,-0.04 -0.37,-0.09 -0.56,-0.09 -0.24,0 -0.42,0.05 -0.61,0.09 h -0.33 -1.22 -1.08 -0.42 -0.43 -0.37 -1.13 -0.05 v -1.12 0 h 1.13 0.42 0.47 0.43 1.08 1.22 0.23 c 0.19,0.04 0.42,0.09 0.66,0.09 0.19,0 0.42,-0.05 0.61,-0.09 h 0.23 1.23 1.12 0.43 0.46 0.43 1.08 1.22 L 29.45,9.76 28.6,8.26 30.06,5.77 H 28.79 27.71 27.29 26.91 26.49 25.41 24.14 23.81 C 23.62,5.72 23.44,5.68 23.25,5.68 c -0.24,0 -0.42,0.04 -0.61,0.09 H 22.36 21.09 20.01 19.59 19.16 18.79 17.66 17.61 V 0.75 0 h -0.7 -0.94 -0.71 V 0.75 4.08 H 0.7 0 v 0.71 23.13 0.7 h 0.7 2.21 0.28 l 0.19,-0.24 3.38,-3.47 h 8.5 v 4.41 0.71 h 0.71 0.94 0.7 v -0.71 -6.1 0 h 1.13 0.42 0.47 0.43 1.08 1.22 0.23 c 0.19,0.05 0.42,0.05 0.66,0.05 0.23,0 0.42,0 0.61,-0.05 h 0.28 1.18 1.17 0.42 0.47 0.38 1.08 1.22 l -0.61,-1.08 -0.85,-1.5 1.46,-2.48 h -1.27 -1.08 -0.42 -0.38 -0.42 -1.08 -1.27 -0.33 c -0.19,-0.05 -0.37,-0.1 -0.56,-0.1 -0.24,0 -0.42,0.05 -0.61,0.1 h -0.33 -1.22 -1.08 -0.42 -0.43 -0.37 -1.13 -0.05 z"
   class="st1"
   id="path3"
   style="stroke:none;stroke-width:1.008;stroke-opacity:1" />
<path
   id="path16"
   class="st2"
   d="m 28.5602,18.76344 h -0.94 l -0.52,1.18 -0.56,-1.18 h -0.9 l 0.85,1.83 -0.94,1.93 h 0.99 l 0.51,-1.22 0.61,1.22 h 0.9 l -0.9,-1.93 z m -4.4174,0.24 c -0.24,-0.14 -0.52,-0.24 -0.8,-0.24 -0.33,0 -0.61,0.1 -0.85,0.24 -0.23,0.14 -0.37,0.37 -0.51,0.65 -0.1,0.29 -0.19,0.61 -0.19,0.99 0,0.61 0.14,1.08 0.42,1.41 0.24,0.33 0.61,0.47 1.13,0.47 0.47,0 0.85,-0.14 1.08,-0.47 0.28,-0.33 0.38,-0.8 0.38,-1.41 0,-0.38 -0.05,-0.7 -0.14,-0.99 -0.15,-0.28 -0.29,-0.51 -0.52,-0.65 z m -0.8,2.72 c -0.42,0 -0.66,-0.38 -0.66,-1.08 0,-0.66 0.24,-1.03 0.66,-1.03 0.42,0 0.61,0.33 0.61,1.03 0,0.7 -0.19,1.08 -0.61,1.08 z m -2.3488,-2.96 h -1.13 l -0.65,1.18 -0.66,-1.18 h -1.18 l 1.08,1.83 -1.17,1.93 h 1.22 l 0.71,-1.22 0.7,1.22 h 1.13 l -1.13,-1.93 z m 5.5462,-9.00114 0.51,-0.99 0.61,0.99 h 0.9 l -0.9,-1.55 0.9,-1.46 h -0.94 l -0.52,0.94 -0.56,-0.94 h -0.9 l 0.85,1.46 -0.94,1.55 z M 24.1428,6.2829 c -0.24,-0.18 -0.52,-0.28 -0.8,-0.28 -0.33,0 -0.61,0.1 -0.85,0.28 -0.23,0.19 -0.37,0.43 -0.51,0.8 -0.1,0.33 -0.19,0.71 -0.19,1.17 0,0.75 0.14,1.27 0.42,1.69 0.24,0.38 0.61,0.57 1.13,0.57 0.47,0 0.85,-0.19 1.08,-0.57 0.28,-0.42 0.38,-0.94 0.38,-1.69 0,-0.46 -0.05,-0.84 -0.14,-1.17 -0.15,-0.37 -0.29,-0.61 -0.52,-0.8 z m -0.8,3.24 c -0.42,0 -0.66,-0.42 -0.66,-1.22 0,-0.84 0.24,-1.27 0.66,-1.27 0.42,0 0.61,0.43 0.61,1.27 0,0.8 -0.19,1.22 -0.61,1.22 z M 20.994,6.7523 h -1.13 l -0.65,0.94 -0.66,-0.94 h -1.18 l 1.08,1.46 -1.17,1.55 h 1.22 l 0.71,-0.99 0.7,0.99 h 1.13 l -1.13,-1.55 z m 7.5662,6.0059 h -0.94 l -0.52,1.18 -0.56,-1.18 h -0.9 l 0.85,1.83 -0.94,1.93 h 0.99 l 0.51,-1.22 0.61,1.22 h 0.9 l -0.9,-1.93 z m -4.4174,0.24 c -0.24,-0.14 -0.52,-0.24 -0.8,-0.24 -0.33,0 -0.61,0.1 -0.85,0.24 -0.23,0.14 -0.37,0.37 -0.51,0.65 -0.1,0.29 -0.19,0.61 -0.19,0.99 0,0.61 0.14,1.08 0.42,1.41 0.24,0.33 0.61,0.47 1.13,0.47 0.47,0 0.85,-0.14 1.08,-0.47 0.28,-0.33 0.38,-0.8 0.38,-1.41 0,-0.38 -0.05,-0.7 -0.14,-0.99 -0.15,-0.28 -0.29,-0.51 -0.52,-0.65 z m -0.8,2.72 c -0.42,0 -0.66,-0.38 -0.66,-1.08 0,-0.66 0.24,-1.03 0.66,-1.03 0.42,0 0.61,0.33 0.61,1.03 0,0.7 -0.19,1.08 -0.61,1.08 z m -2.3488,-2.96 h -1.13 l -0.65,1.18 -0.66,-1.18 h -1.18 l 1.08,1.83 -1.17,1.93 h 1.22 l 0.71,-1.22 0.7,1.22 h 1.13 l -1.13,-1.93 z M 15.781,0.749344 v 28.53 h 0.75 v -28.53 z M 12.44772,17.2688 h 0.94 v -0.9 -1.73 -0.89 h -0.57 l 0.24,-0.47 0.47,-1.27 h -1.36 -0.99 -0.52 l -0.28,0.42 -1.17,1.74 -0.19,0.23 v 0.24 1.73 0.9 h 0.99 z m -2.44,-2.63 1.17,-1.74 h 0.99 l -0.75,1.74 h 1.03 v 1.73 h -2.44 z m -2.82034,2.63 h 0.94 v -0.9 -1.73 -0.89 h -0.57 l 0.24,-0.47 0.47,-1.27 h -1.36 -0.99 -0.52 l -0.28,0.42 -1.17,1.74 -0.19,0.23 v 0.29 1.68 0.9 h 0.99 z m -2.44,-2.63 1.17,-1.74 h 0.99 l -0.75,1.74 h 1.03 v 1.73 h -2.44 z m 1.314096,8.48923 -3.53,3.71 h -0.84 v -21.35 h 13.34 v -0.98 h -14.28 v 23.27 h 2.16 l 3.52,-3.71 h 8.6 v -0.94 z"
   style="fill:#2c5967;stroke:none;stroke-width:0.75;stroke-linecap:round;stroke-linejoin:round" /></svg>
