<?xml version="1.0" encoding="UTF-8" standalone="no"?>
<svg
   id="Layer_1"
   data-name="Layer 1"
   viewBox="0 0 44.562305 43.979687"
   version="1.1"
   sodipodi:docname="Document Understanding.svg"
   width="44.562305"
   height="43.979687"
   inkscape:version="1.3.2 (091e20e, 2023-11-25, custom)"
   xmlns:inkscape="http://www.inkscape.org/namespaces/inkscape"
   xmlns:sodipodi="http://sodipodi.sourceforge.net/DTD/sodipodi-0.dtd"
   xmlns="http://www.w3.org/2000/svg"
   xmlns:svg="http://www.w3.org/2000/svg">
  <defs
     id="defs10" />
  <sodipodi:namedview
     id="namedview10"
     pagecolor="#ffffff"
     bordercolor="#666666"
     borderopacity="1.0"
     inkscape:showpageshadow="2"
     inkscape:pageopacity="0.0"
     inkscape:pagecheckerboard="0"
     inkscape:deskcolor="#d1d1d1"
     inkscape:zoom="8.1087761"
     inkscape:cx="22.321494"
     inkscape:cy="22.013186"
     inkscape:window-width="1920"
     inkscape:window-height="1009"
     inkscape:window-x="1072"
     inkscape:window-y="425"
     inkscape:window-maximized="1"
     inkscape:current-layer="Layer_1" />
  <path
     id="path10-4"
     style="fill:#fcfbfa"
     d="M 25.123047,0.00195313 C 22.934809,0.0945561 20.781976,0.82188958 19.019727,2.1290201 18.146694,2.6100062 17.621212,3.8822367 16.482043,3.7054824 13.253638,3.4709299 9.9605141,5.0980262 8.2284176,7.838921 7.460464,8.8720193 7.1689786,10.14193 6.7631408,11.333878 6.0531735,12.100167 4.9550769,12.410046 4.2355812,13.192869 1.9522843,15.091787 0.52559403,17.941189 0.25637433,20.89056 0.15200505,21.990686 0.08764452,23.095416 -0.00195313,24.197266 H 7.84375 c -0.4946453,0.273241 -1.0923224,0.450075 -1.5703655,0.811936 -1.2597665,0.799691 -2.1749665,2.096355 -2.5819783,3.52986 -0.2028023,0.594436 -0.068175,1.286126 -0.5683593,1.761719 -0.5557486,1.242958 -0.7862214,2.625858 -0.515625,3.970703 0.1465863,0.797779 0.5099585,1.563197 0.9004179,2.253605 0.1095134,1.678569 1.0187281,3.232049 2.3024259,4.294325 0.5901493,0.450906 1.2884271,0.796085 1.9481382,1.080437 1.2671852,1.45646 3.2869511,2.272817 5.2064401,2.033743 0.570889,-0.03517 1.087838,-0.490702 1.606479,-0.179443 1.675559,0.547533 3.555913,0.04647 4.963833,-0.941651 0.468317,-0.290438 0.788176,-0.803835 1.249079,-1.05119 0.953928,-0.326263 1.783503,-0.950449 2.469671,-1.683185 h 12.691406 c -0.0056,-5.293622 -0.01451,-10.587239 -0.02148,-15.880859 h 6.501953 C 43.520971,22.261477 44.4928,20.174231 44.544926,17.908203 44.821608,13.260198 41.844188,8.6069404 37.442681,7.0302886 36.639582,6.6386866 35.464962,6.7403778 35.090798,5.7582 33.959669,3.6560995 32.133902,1.924628 29.944538,0.96760397 28.435956,0.2664616 26.779113,-0.02430518 25.123047,0.00195313 Z"
     sodipodi:nodetypes="ccccccccccccccccccccccccccccc" />
  <path
     id="path10"
     d="m 19.094297,36.447953 a 0.86408912,0.86408912 0 1 0 -1.15,-1.29 0.86408912,0.86408912 0 0 0 1.15,1.29 z m -1.2,-6.7 a 0.88,0.88 0 0 0 0,1.23 0.86,0.86 0 0 0 1.26,0.01 0.87,0.87 0 0 0 0,-1.23 0.88,0.88 0 0 0 -1.26,-0.01 z m 2.339999,3.33 a 0.87,0.87 0 0 1 -0.87,0.87 0.87,0.87 0 0 1 -0.87,-0.87 0.87,0.87 0 0 1 0.87,-0.87 0.87,0.87 0 0 1 0.87,0.87 z m 2.600001,2.91 v -0.19 a 4.25,4.25 0 0 0 0,-5.38 v -0.2 a 4.24,4.24 0 0 0 -3.44,-4.15 4.4,4.4 0 0 0 -2,-1.61 4.14,4.14 0 0 0 -1.59,-0.25 2.45,2.45 0 0 0 -1.23,0.48 l -0.42,0.2 -0.38,-0.23 a 2.42,2.42 0 0 0 -1.22,-0.48 4.11,4.11 0 0 0 -1.59,0.25 4.38,4.38 0 0 0 -2.0600001,1.61 4.24,4.24 0 0 0 -3.45,4.15 1.34,1.34 0 0 0 0,0.2 4.21,4.21 0 0 0 0,5.38 1.21,1.21 0 0 0 0,0.19 4.24,4.24 0 0 0 3.42,4.14 4.18,4.18 0 0 0 3.5100001,1.89 h 0.12 a 2.63,2.63 0 0 0 1.3,-0.5 l 0.34,-0.21 0.34,0.21 a 2.66,2.66 0 0 0 1.3,0.5 h 0.12 a 4.17,4.17 0 0 0 3.51,-1.89 4.24,4.24 0 0 0 3.42,-4.11 z m -10.38,4.26 h -0.07 a 2.47,2.47 0 0 1 -2.23,-1.35 l -0.2200001,-0.43 h -0.49 a 2.5,2.5 0 0 1 -2.29,-2.48 2.6,2.6 0 0 1 0,-0.36 l 0.07,-0.44 -0.32,-0.31 a 2.49,2.49 0 0 1 0,-3.54 l 0.39,-0.35 -0.07,-0.44 a 2.62,2.62 0 0 1 0,-0.37 2.48,2.48 0 0 1 2.29,-2.47 h 0.48 l 0.1600001,-0.45 a 2.58,2.58 0 0 1 1.36,-1.2 2.47,2.47 0 0 1 0.83,-0.15 h 0.07 a 3,3 0 0 1 0.39,0.22 l 0.43,0.26 v 13.39 l -0.37,0.22 a 2.49,2.49 0 0 1 -0.41,0.25 z m 3.45,0 h -0.06 a 2.19,2.19 0 0 1 -0.45,-0.25 l -0.38,-0.22 v -13.39 l 0.43,-0.26 0.37,-0.22 a 2.44,2.44 0 0 1 0.92,0.15 2.6,2.6 0 0 1 1.42,1.2 l 0.22,0.42 h 0.48 a 2.48,2.48 0 0 1 2.29,2.47 2.62,2.62 0 0 1 0,0.37 l -0.07,0.44 0.32,0.31 a 2.46,2.46 0 0 1 0,3.54 l -0.31,0.31 0.06,0.44 a 2.6,2.6 0 0 1 0,0.36 2.5,2.5 0 0 1 -2.28,2.48 h -0.48 l -0.22,0.43 a 2.49,2.49 0 0 1 -2.26,1.42 z m -6.7500001,-5.03 a 0.87,0.87 0 0 0 1.2800001,1.17 0.87,0.87 0 0 0 -1.2800001,-1.17 z m 0,-5.49 a 0.87,0.87 0 1 0 1.2300001,0 0.87,0.87 0 0 0 -1.2300001,0 z m 0.6500002,3.35 a 0.87,0.87 0 0 1 -0.87,0.87 0.87,0.87 0 0 1 -0.87,-0.87 0.87,0.87 0 0 1 0.87,-0.87 0.87,0.87 0 0 1 0.87,0.87 z m 7.5999999,-12.82 h 12.38 v 1.74 h -12.38 z m 12.39,8.26 h -5.92 a 5.31,5.31 0 0 1 0.28,1.47 c 0.07,0.1 0.13,0.2 0.19,0.3 h 5.47 z m 0,5.65 v -1.74 h -4.74 a 4.74,4.74 0 0 1 0.05,0.65 5.68,5.68 0 0 1 -0.11,1.09 z m 0,-10 h -10.35 a 6,6 0 0 1 0.71,0.72 5.43,5.43 0 0 1 1.95,1 h 7.69 z m 4.12,-7.46 -4.7,-4.72 h -15.94 v 11 a 2.9,2.9 0 0 1 0.87,0.41 3,3 0 0 1 0.87,-0.41 v -9.25 h 12.39 v 4.78 h 4.75 v 17.82 h -8 a 5.67,5.67 0 0 1 -0.41,1.74 h 10.2 z m -4.76,-2.32 2.4,2.4 h -2.4 z m 9.19,-4.7000003 a 9,9 0 0 0 -2.89,-1.18 3,3 0 0 1 -2,-1.59 8.91,8.91 0 0 0 -14.5,-2.08 2.82,2.82 0 0 1 -2.36,0.87 7.18,7.18 0 0 0 -7.7500001,5.7700003 2.93,2.93 0 0 1 -1.53,2 9.51,9.51 0 0 0 -5.09,7.78 l -0.07,0.94 h 9.8200001 v -1.74 H 4.0842969 a 7.77,7.77 0 0 1 4,-5.41 4.7,4.7 0 0 0 2.4700001,-3.24 5.41,5.41 0 0 1 5.84,-4.3600003 4.56,4.56 0 0 0 3.76,-1.46 7.18,7.18 0 0 1 11.71,1.71 4.71,4.71 0 0 0 3.22,2.5000003 7.42,7.42 0 0 1 5.13,10.26 h -5 v 1.74 h 6 l 0.24,-0.46 a 9.14,9.14 0 0 0 -3.11,-12.0500003 z"
     style="fill:#2c5967" />
</svg>
