<svg width="300" height="300" xmlns="http://www.w3.org/2000/svg" version="1.1">
 <!-- Generator: Adobe Illustrator 29.2.1, SVG Export Plug-In . SVG Version: 2.1.0 Build 116)  -->

 <g>
  <title>Layer 1</title>
  <ellipse stroke="#ffffff" ry="148.5" rx="148.5" id="svg_2" cy="148.89998" cx="149.89998" fill="#fff"/>
  <path stroke="null" id="svg_1" fill="#566ab2" d="m193.27881,175.79609c-2.01453,0.83939 -4.11301,1.5109 -6.0436,1.59484c-3.0218,0.16788 -6.37936,-1.09121 -8.14208,-2.60211c-2.76998,-2.35029 -4.78452,-3.69331 -5.62391,-7.72238c-0.33576,-1.76272 -0.16788,-4.44876 0.16788,-6.0436c0.75545,-3.35756 -0.08394,-5.45603 -2.43423,-7.47056c-1.9306,-1.59484 -4.36482,-2.01453 -7.05087,-2.01453s-1.9306,-0.41969 -2.60211,-0.83939c-1.09121,-0.58757 -2.01453,-1.9306 -1.17514,-3.69331c0.25182,-0.58757 1.67878,-1.9306 1.9306,-2.09847c3.60937,-2.09847 7.89026,-1.42696 11.75145,0.16788c3.60937,1.42696 6.29542,4.19695 10.24055,7.9742c4.02907,4.61664 4.70058,5.87572 7.05087,9.31722c1.76272,2.68605 3.4415,5.53997 4.5327,8.72965c0.67151,2.01453 -0.16788,3.60937 -2.60211,4.61664l0,0.08394zm-31.81285,-16.28415c0,-1.76272 1.42696,-3.10574 3.18968,-3.10574s0.75545,0.08394 1.09121,0.16788c0.41969,0.16788 0.83939,0.41969 1.17514,0.75545c0.58757,0.58757 0.92333,1.34302 0.92333,2.18241c0,1.76272 -1.42696,3.18968 -3.18968,3.18968s-3.10574,-1.42696 -3.10574,-3.18968l-0.08394,0zm-10.24055,65.89205c-21.40442,-16.78778 -31.72891,-22.32775 -36.0098,-22.07594c-4.02907,0.25182 -3.27362,4.78452 -2.35029,7.80632c0.92333,2.93786 2.09847,4.9524 3.77725,7.5545c1.17514,1.67878 1.9306,4.28088 -1.17514,6.12754c-6.88299,4.28088 -18.88626,-1.42696 -19.38989,-1.67878c-13.93386,-8.22601 -25.60137,-19.05413 -33.74345,-33.82738c-7.9742,-14.26962 -12.5069,-29.5465 -13.26235,-45.83065c-0.16788,-3.94513 0.92333,-5.37209 4.86846,-6.0436c5.20421,-0.92333 10.49237,-1.17514 15.69658,-0.41969c21.82412,3.18968 40.37462,12.92659 55.98726,28.37136c8.89753,8.81359 15.61264,19.30595 22.49563,29.5465c7.38663,10.91206 15.27688,21.32049 25.34955,29.79832c3.60937,3.0218 6.37936,5.28815 9.14934,6.88299c-8.22601,0.92333 -21.90806,1.09121 -31.22528,-6.29542l-0.16788,0.08394zm124.48142,-138.33134c-2.60211,-1.25908 -3.69331,1.17514 -5.28815,2.35029c-0.50363,0.41969 -0.92333,0.92333 -1.42696,1.42696c-3.77725,4.02907 -8.22601,6.71511 -14.10174,6.37936c-8.47783,-0.50363 -15.69658,2.18241 -22.15988,8.72965c-1.34302,-7.9742 -5.87572,-12.75872 -12.75872,-15.86446c-3.60937,-1.59484 -7.21875,-3.18968 -9.73691,-6.63117c-1.76272,-2.43423 -2.26635,-5.20421 -3.10574,-7.89026c-0.58757,-1.67878 -1.09121,-3.27362 -3.0218,-3.60937c-2.01453,-0.33576 -2.85392,1.42696 -3.60937,2.85392c-3.18968,5.87572 -4.44876,12.25508 -4.36482,18.80232c0.25182,14.68931 6.4633,26.44076 18.80232,34.75071c1.42696,0.92333 1.76272,1.9306 1.34302,3.27362c-0.83939,2.85392 -1.84666,5.62391 -2.76998,8.47783c-0.58757,1.84666 -1.42696,2.26635 -3.35756,1.42696c-6.79905,-2.85392 -12.59084,-7.05087 -17.79505,-12.0872c-8.72965,-8.47783 -16.70385,-17.79505 -26.5247,-25.18168c-2.35029,-1.76272 -4.61664,-3.35756 -7.05087,-4.78452c-10.07267,-9.82085 1.34302,-17.87899 3.94513,-18.80232c2.76998,-1.00727 1.00727,-4.44876 -7.9742,-4.36482c-8.89753,0 -17.0396,3.0218 -27.53197,7.05087c-1.5109,0.58757 -3.10574,1.00727 -4.78452,1.42696c-9.4851,-1.76272 -19.22201,-2.18241 -29.46256,-1.00727c-19.30595,2.09847 -34.75071,11.24782 -45.99853,26.86045c-13.43023,18.63444 -16.61991,39.87099 -12.67478,62.03086c4.11301,23.33502 16.03233,42.72491 34.41496,57.83392c18.9702,15.69658 40.87825,23.33502 65.89205,21.90806c15.19294,-0.83939 32.06467,-2.93786 51.1188,-19.05413c4.78452,2.35029 9.82085,3.35756 18.21475,4.02907c6.4633,0.58757 12.67478,-0.33576 17.4593,-1.25908c7.5545,-1.59484 7.05087,-8.56177 4.28088,-9.82085c-22.07594,-10.32449 -17.20748,-6.12754 -21.5723,-9.4851c11.16388,-13.26235 28.11954,-27.02833 34.66677,-71.68384c0.50363,-3.52543 0.08394,-5.79179 0,-8.64571c0,-1.76272 0.33576,-2.43423 2.35029,-2.60211c5.53997,-0.67151 10.91206,-2.18241 15.78052,-4.86846c14.26962,-7.80632 20.0614,-20.64897 21.40442,-36.0098c0.16788,-2.35029 0,-4.78452 -2.51817,-6.0436l-0.08394,0.08394z" class="st0"/>
 </g>
</svg>