<?xml version="1.0" encoding="UTF-8" standalone="no"?>
<svg
   id="Layer_1"
   data-name="Layer 1"
   viewBox="0 0 42 38.8"
   version="1.1"
   sodipodi:docname="Generative AI.svg"
   inkscape:version="1.3.2 (091e20e, 2023-11-25, custom)"
   xmlns:inkscape="http://www.inkscape.org/namespaces/inkscape"
   xmlns:x="adobe:ns:meta/"
   xmlns:sodipodi="http://sodipodi.sourceforge.net/DTD/sodipodi-0.dtd"
   xmlns="http://www.w3.org/2000/svg"
   xmlns:svg="http://www.w3.org/2000/svg"
   xmlns:rdf="http://www.w3.org/1999/02/22-rdf-syntax-ns#"
   xmlns:dc="http://purl.org/dc/elements/1.1/"
   xmlns:xmpRights="http://ns.adobe.com/xap/1.0/rights/"
   xmlns:xmp="http://ns.adobe.com/xap/1.0/"
   xmlns:xmpMM="http://ns.adobe.com/xap/1.0/mm/"
   xmlns:stEvt="http://ns.adobe.com/xap/1.0/sType/ResourceEvent#">
  <sodipodi:namedview
     id="namedview7"
     pagecolor="#ffffff"
     bordercolor="#666666"
     borderopacity="1.0"
     inkscape:showpageshadow="2"
     inkscape:pageopacity="0.0"
     inkscape:pagecheckerboard="0"
     inkscape:deskcolor="#d1d1d1"
     inkscape:zoom="8.7619048"
     inkscape:cx="21"
     inkscape:cy="19.345109"
     inkscape:window-width="1064"
     inkscape:window-height="811"
     inkscape:window-x="1180"
     inkscape:window-y="525"
     inkscape:window-maximized="0"
     inkscape:current-layer="Layer_1" />
  <metadata
     id="metadata1">
<?xpacket begin="﻿" id="W5M0MpCehiHzreSzNTczkc9d"?>    <x:xmpmeta
       x:xmptk="Adobe XMP Core 7.1-c000 79.4d2f597, 2021/09/01-20:51:22        ">
      <rdf:RDF>
        <rdf:Description
           rdf:about="">
          <xmpRights:Marked />
          <dc:rights>
            <rdf:Alt>
              <rdf:li
                 xml:lang="x-default">Oracle All Rights</rdf:li>
            </rdf:Alt>
          </dc:rights>
          <dc:subject>
            <rdf:Bag>
              <rdf:li>brain</rdf:li>
              <rdf:li>connections artificial</rdf:li>
              <rdf:li>intelligence</rdf:li>
              <rdf:li>icons</rdf:li>
            </rdf:Bag>
          </dc:subject>
          <xmp:MetadataDate>2023-11-09T12:18:16-06:00</xmp:MetadataDate>
          <xmpMM:InstanceID>xmp.iid:9c319569-18f8-5645-8ae3-08f1a4bd6081</xmpMM:InstanceID>
          <xmpMM:DocumentID>xmp.did:9c319569-18f8-5645-8ae3-08f1a4bd6081</xmpMM:DocumentID>
          <xmpMM:OriginalDocumentID>xmp.did:9c319569-18f8-5645-8ae3-08f1a4bd6081</xmpMM:OriginalDocumentID>
          <xmpMM:History>
            <rdf:Seq>
              <rdf:li>
                <rdf:Description>
                  <stEvt:action>saved</stEvt:action>
                  <stEvt:instanceID>xmp.iid:9c319569-18f8-5645-8ae3-08f1a4bd6081</stEvt:instanceID>
                  <stEvt:when>2023-11-09T12:18:16-06:00</stEvt:when>
                  <stEvt:softwareAgent>Adobe Bridge 2023</stEvt:softwareAgent>
                  <stEvt:changed>/metadata</stEvt:changed>
                </rdf:Description>
              </rdf:li>
            </rdf:Seq>
          </xmpMM:History>
        </rdf:Description>
      </rdf:RDF>
    </x:xmpmeta>
<?xpacket end="w"?>  </metadata>
  <defs
     id="defs1">
    <style
       id="style1">
      .cls-1 {
        fill: #2c5967;
      }

      .cls-2 {
        fill: #fff;
      }
    </style>
  </defs>
  <path
     class="cls-2"
     d="M21.18,21.24h13.44c.67,1.26,2,2.09,3.46,2.09,2.16,0,3.92-1.76,3.92-3.93s-1.76-3.93-3.92-3.93c-1.46,0-2.79,.83-3.46,2.09h-13.69v-1.14h9.13l.29-.29,2.93-2.93c.38,.12,.77,.18,1.17,.18,2.16,0,3.92-1.76,3.92-3.93s-1.76-3.93-3.92-3.93-3.92,1.76-3.92,3.93c0,.39,.06,.77,.17,1.14l-2.16,2.16h-7.61v-2.27l.96-.96,1.86-1.86c.38,.12,.77,.18,1.17,.18,2.16,0,3.92-1.76,3.92-3.93s-1.76-3.93-3.92-3.93c-1.57,0-2.92,.93-3.54,2.27v-.03s-.41,.83-.41,.83l-.3-.79s0-.02-.01-.03h0s0,0,0,0C20.12,.97,18.9,.07,17.44,.02c-.1,0-.19,0-.29,0-1.05,0-2.1,.19-3.11,.57-1.81,.67-3.38,1.91-4.46,3.51-4.3,.79-7.48,4.58-7.48,9,0,.15,0,.31,.01,.47-1.36,1.64-2.11,3.7-2.11,5.85s.75,4.21,2.11,5.85c0,.15-.01,.3-.01,.45,0,4.39,3.16,8.17,7.43,8.99,1.7,2.58,4.51,4.11,7.62,4.11,.08,0,.16,0,.24,0,1.87-.05,3.38-1.55,3.51-3.38h.15c.27,1.9,1.89,3.38,3.87,3.38,2.16,0,3.92-1.76,3.92-3.93s-1.76-3.93-3.92-3.93c-.4,0-.79,.06-1.17,.18l-1.86-1.86-.96-.96v-2.25h7.61l2.2,2.21c-.08,.32-.12,.64-.12,.97,0,2.16,1.76,3.93,3.92,3.93s3.92-1.76,3.92-3.93-1.76-3.93-3.92-3.93c-.45,0-.9,.08-1.33,.23l-2.86-2.87-.29-.29h-9.13v-1.14h.25Z"
     id="path1" />
  <path
     id="path7"
     class="cls-1"
     d="m 38.08,16.48 c -1.32,0 -2.44,0.88 -2.8,2.09 h -14.1 v 1.67 h 14.1 c 0.36,1.21 1.48,2.09 2.8,2.09 1.61,0 2.92,-1.31 2.92,-2.93 0,-1.62 -1.31,-2.93 -2.92,-2.93 z m 0,4.18 c -0.69,0 -1.25,-0.56 -1.25,-1.25 0,-0.69 0.56,-1.25 1.25,-1.25 0.69,0 1.25,0.56 1.25,1.25 0,0.69 -0.56,1.25 -1.25,1.25 z m -3.55,5.64 c -0.56,0 -1.09,0.16 -1.53,0.44 l -3.36,-3.37 h -8.46 v 1.67 h 7.77 l 2.94,2.95 c -0.18,0.38 -0.28,0.79 -0.28,1.23 0,1.61 1.31,2.93 2.92,2.93 1.61,0 2.92,-1.31 2.92,-2.93 0,-1.62 -1.31,-2.93 -2.92,-2.93 z m 0,4.18 c -0.69,0 -1.25,-0.56 -1.25,-1.25 0,-0.69 0.56,-1.25 1.25,-1.25 0.69,0 1.25,0.56 1.25,1.25 0,0.69 -0.56,1.25 -1.25,1.25 z M 21.18,13.76 v 1.67 h 8.46 l 3.4,-3.41 c 0.42,0.23 0.9,0.36 1.4,0.36 1.61,0 2.92,-1.31 2.92,-2.93 0,-1.62 -1.31,-2.93 -2.92,-2.93 -1.61,0 -2.92,1.31 -2.92,2.93 0,0.5 0.13,0.96 0.34,1.37 l -2.92,2.92 H 21.17 Z M 34.44,8.21 c 0.69,0 1.25,0.56 1.25,1.25 0,0.69 -0.56,1.25 -1.25,1.25 -0.69,0 -1.25,-0.56 -1.25,-1.25 0,-0.69 0.56,-1.25 1.25,-1.25 z M 19.92,28.4 V 3.65 C 19.92,2.22 18.81,1.07 17.4,1.02 16.38,0.99 15.37,1.15 14.39,1.52 12.63,2.17 11.15,3.41 10.18,5.01 6.18,5.54 3.1,9 3.1,13.09 c 0,0.26 0.01,0.52 0.05,0.81 -1.39,1.51 -2.14,3.45 -2.14,5.51 0,2.06 0.76,4 2.14,5.51 -0.03,0.28 -0.04,0.53 -0.04,0.79 0,4.07 3.06,7.53 7.04,8.07 1.46,2.49 4.11,4.03 7.01,4.03 0.07,0 0.14,0 0.21,0 1.42,-0.04 2.57,-1.22 2.57,-2.63 V 28.42 Z M 17.35,2.69 c 0.5,0.02 0.91,0.45 0.91,0.96 v 7.09 c 0,0 0,3.03 0,3.03 H 13.02 L 12.5,13.25 c 0.21,-0.41 0.34,-0.87 0.34,-1.36 0,-1.61 -1.31,-2.93 -2.92,-2.93 -1.61,0 -2.92,1.31 -2.92,2.93 0,1.62 1.31,2.93 2.92,2.93 0.51,0 1,-0.14 1.42,-0.37 l 1,1 h 5.93 v 3.14 H 10.43 C 10.07,17.38 8.95,16.5 7.63,16.5 c -1.61,0 -2.92,1.31 -2.92,2.93 0,1.62 1.31,2.93 2.92,2.93 1.32,0 2.44,-0.88 2.8,-2.09 h 7.84 v 3.14 h -5.93 l -0.87,0.87 C 11.02,24 10.49,23.83 9.92,23.83 8.31,23.83 7,25.14 7,26.76 c 0,1.62 1.31,2.93 2.92,2.93 1.61,0 2.92,-1.31 2.92,-2.93 0,-0.44 -0.1,-0.85 -0.27,-1.22 l 0.45,-0.45 h 5.24 V 35.2 c 0,0.52 -0.42,0.95 -0.95,0.96 -0.06,0 -0.11,0 -0.17,0 -2.43,0 -4.63,-1.35 -5.75,-3.52 l -0.21,-0.41 -0.46,-0.04 c -3.34,-0.27 -5.95,-3.1 -5.95,-6.46 0,-0.29 0.03,-0.59 0.08,-0.96 l 0.06,-0.42 -0.3,-0.3 C 3.36,22.82 2.67,21.18 2.67,19.43 c 0,-1.75 0.69,-3.39 1.94,-4.62 l 0.3,-0.3 -0.06,-0.42 C 4.79,13.72 4.77,13.41 4.77,13.12 4.77,9.75 7.4,6.91 10.75,6.66 L 11.21,6.63 11.43,6.22 C 12.2,4.78 13.46,3.68 14.97,3.11 l 2.38,-0.4 z M 9.91,13.14 c -0.69,0 -1.25,-0.56 -1.25,-1.25 0,-0.69 0.56,-1.25 1.25,-1.25 0.69,0 1.25,0.56 1.25,1.25 0,0.69 -0.56,1.25 -1.25,1.25 z m -1.04,6.27 c 0,0.69 -0.56,1.25 -1.25,1.25 -0.69,0 -1.25,-0.56 -1.25,-1.25 0,-0.69 0.56,-1.25 1.25,-1.25 0.69,0 1.25,0.56 1.25,1.25 z m 2.3,7.32 c 0,0.69 -0.56,1.25 -1.25,1.25 -0.69,0 -1.25,-0.56 -1.25,-1.25 0,-0.69 0.56,-1.25 1.25,-1.25 0.69,0 1.25,0.56 1.25,1.25 z m 13.74,5.21 c -0.51,0 -0.99,0.13 -1.4,0.36 l -2.33,-2.33 v 2.36 l 1.16,1.16 C 22.12,33.9 22,34.37 22,34.86 c 0,1.61 1.31,2.93 2.92,2.93 1.61,0 2.92,-1.31 2.92,-2.93 0,-1.62 -1.31,-2.93 -2.92,-2.93 z m 0,4.18 c -0.69,0 -1.25,-0.56 -1.25,-1.25 0,-0.69 0.56,-1.25 1.25,-1.25 0.69,0 1.25,0.56 1.25,1.25 0,0.69 -0.56,1.25 -1.25,1.25 z M 23.51,6.49 c 0.42,0.23 0.9,0.36 1.4,0.36 1.61,0 2.92,-1.31 2.92,-2.93 0,-1.62 -1.31,-2.93 -2.92,-2.93 -1.61,0 -2.92,1.31 -2.92,2.93 0,0.5 0.13,0.96 0.34,1.37 L 21.17,6.45 V 8.81 L 23.5,6.48 Z m 1.4,-3.82 c 0.69,0 1.25,0.56 1.25,1.25 0,0.69 -0.56,1.25 -1.25,1.25 -0.69,0 -1.25,-0.56 -1.25,-1.25 0,-0.69 0.56,-1.25 1.25,-1.25 z" />
</svg>
